<?xml version="1.0" encoding="UTF-8"?>
<svg id="Layer_2" data-name="Layer 2" xmlns="http://www.w3.org/2000/svg" viewBox="0 0 424.64 176.65">
  <defs>
    <style>
      .cls-1 {
        fill: none;
      }

      .cls-2 {
        fill: #fff;
      }

      .cls-3 {
        fill: #a63b41;
      }

      .cls-4 {
        fill: #1951a3;
      }
    </style>
  </defs>
  <g id="Layer_2-2" data-name="Layer 2">
    <g>
      <g>
        <g>
          <g>
            <path class="cls-2" d="M152.74,68c-1.65,0-2.78,.36-3.3,.81-1.33-.36-2.98-2.3-3.1-2.78-.04-.16,.2-.64,.36-.6,.81,.2,3.62,.36,6.32,.32l9.51-.08c2.78-.04,3.58-1.45,4.03-1.45,.48,0,2.22,2.42,2.22,3.54,0,.2-.16,.32-.48,.32-.44,0-3.14-.12-5.32-.12l-10.23,.04Zm5.28,14.1c-4.87,0-8.1-2.38-8.1-5.92,0-3.22,2.82-5.44,7.21-5.68,.08-.16,.12-.32,.12-.48,0-.36-.12-.77-.6-1.17,0-.85,2.78,0,2.78,.48,0,.2-.24,.72-.4,1.17,4.27,.28,7.05,2.5,7.05,5.68,0,3.54-3.22,5.92-8.06,5.92Zm-3.1-18.21c-1.29,0-4.03-2.9-4.19-3.26-.08-.16,.2-.85,.44-.81,1.61,.32,3.14,.6,5.12,.81l4.11,.48c.44,.04,2.26,2.78,1.05,2.78h-6.53Zm23.4,29.65c0,.24-.16,.36-.48,.36l-17.72,.04c-3.95,0-4.71-1.33-4.71-3.95v-2.66c0-.68-1.53-1.73-2.34-2.01-.24-.08,.64-1.17,1.05-1.17,1.61,0,3.99,.4,5.2,.81,.28,.08,.64,.2,.56,.77s-.08,1.41-.08,2.18v2.13c0,1.41,.48,1.57,1.73,1.57l9.51-.04c2.86,0,3.83-1.57,4.23-1.57,.48,0,3.06,2.46,3.06,3.54Zm-20.3-13.49c2.22,0,3.71-1.53,3.71-3.83s-1.49-3.83-3.71-3.83-3.75,1.57-3.75,3.83,1.49,3.83,3.75,3.83Zm23.04-7.98c.56-.2,2.82,4.31,1.89,4.31l-7.41-.08v2.05c0,4.07-1.13,7.29-1.69,8.5-.36,.4-1.21,.6-1.69,.48-.32-1.13-1.01-3.3-1.01-8.98v-16.92c0-.97-3.22-2.78-4.23-3.26-.24-.12,.6-1.09,.89-1.09,2.09,0,8.02,1.21,7.9,2.22-.08,.6-.16,1.37-.16,2.22v12.69l5.52-2.13Z"/>
            <path class="cls-2" d="M220.78,74.69c0,.2-.16,.32-.52,.32h-15.19v1.77c0,2.42-.52,3.87-1.09,5h3.58c1.33,0,2.05-.2,2.54-.68,.52-.2,4.23,.52,4.35,.97-.16,1.21-.16,2.74-.16,4.79,0,4.07-1.13,6.89-1.69,8.1-.36,.4-1.21,.6-1.69,.48-.36-1.13-1.01-2.9-1.01-8.58v-2.78h-12.81c-1.69,0-2.78,.44-3.3,.89-1.33-.36-3.79-2.38-3.95-2.86-.04-.16,.24-.64,.4-.6,.77,.2,3.59,.32,6.28,.32h4.67c-.24-.97-.52-2.26-.52-4.39v-2.38h-9.47c-1.65,0-2.78,.48-3.26,.93-1.33-.36-3.83-2.38-3.95-2.9-.04-.16,.2-.64,.36-.6,.81,.2,3.63,.32,6.32,.32l17.93-.08c.4-2.9,.72-6.61,.77-10.11l-12.93,.04c-1.65,0-2.78,.48-3.26,.93-1.33-.36-3.83-2.38-3.95-2.9-.04-.16,.2-.64,.36-.6,.81,.2,3.63,.32,6.32,.32l12-.08c1.29,0,2.01-.2,2.5-.64,.56-.2,4.15,.36,4.07,.93-.56,3.95-2.05,9.35-3.02,12.13h2.01c2.86,0,3.79-1.57,4.23-1.57,.48,0,3.06,2.46,3.06,3.54Z"/>
            <path class="cls-2" d="M259.45,76.1c0,.2-.16,.32-.52,.32h-15.51c-.16,1.73-.6,3.02-1.09,3.99h3.38c1.33,0,2.01-.28,2.54-.77,.52-.04,4.27,.48,4.15,1.05l-1.17,5.44c.89,.6,1.41,1.77,1.41,2.01s-.12,.4-.36,.4h-17.12v1.93c0,1.57,.48,1.89,2.54,1.89h9.51c2.86,0,3.83-1.61,4.23-1.61,.48,0,3.06,2.42,3.06,3.54,0,.2-.16,.32-.48,.32h-18.93c-3.1,0-4.19-1.05-4.27-3.42l-.08-3.06c0-.44-1.21-1.09-1.97-1.37-.04-.24,.6-1.01,1.01-1.01,.89,0,4.15,.16,5.4,.56h12.21l.08-3.67h-11.04c-1.65,0-2.78,.44-3.26,.93-1.33-.4-3.83-2.42-3.95-2.9-.04-.16,.2-.64,.36-.6,.81,.2,3.62,.32,6.32,.32h3.79c-.24-.93-.44-2.17-.52-3.95h-9.26c-1.65,0-2.78,.44-3.26,.93-1.33-.4-3.83-2.42-3.95-2.9-.04-.16,.2-.64,.36-.6,.81,.2,3.63,.32,6.32,.32l22.8-.08c2.86,0,3.79-1.61,4.23-1.61,.48,0,3.06,2.46,3.06,3.59Zm-33.96-4.87c5.32-2.18,11.52-6.45,14.38-10.47,.28-.4-1.05-1.65-1.81-2.13-.2-.12,.81-.89,1.09-.89,1.41,0,5.2,1.53,6.12,2.18,.48,.36,.68,.68,.32,1.25-.81,1.13-1.73,2.17-2.78,3.14,4.15,.72,8.58,1.61,10.51,2.22,1.33,.4,1.89,5.4,.89,4.91-4.03-2.01-8.98-4.07-13.25-5.56-4.95,3.83-11.12,6-14.42,6.61-.48-.04-1.05-.81-1.05-1.25Z"/>
            <path class="cls-2" d="M294.01,59.26c-.08,.6-.16,1.37-.16,2.22v8.58c0,4.07-1.13,6.85-1.73,8.1-.36,.4-1.21,.6-1.69,.48-.32-1.09-.97-2.78-1.01-7.94h-2.38c-1.69,0-2.78,.36-3.3,.85-.6-.16-1.25-.6-1.81-1.09v.44c-.08,4.59-.93,6.32-1.41,7.25-.36,.4-1.21,.6-1.69,.48-.28-.68-.6-1.21-.81-1.89l-8.78,.04c-.24,.64-.52,1.29-.81,1.69-.36,.4-1.17,.6-1.69,.48-.44-1.09-1.09-3.63-1.25-7.05l-.32-6.4c-.04-.77-1.25-1.89-2.26-2.38-.24-.12,.64-1.01,.89-1.01,2.09,0,5.96,.97,5.88,1.53-.08,.6-.16,1.41-.16,2.22v1.09l8.26-.08v-2.94c0-.72-1.57-1.89-2.58-2.38-.24-.12,.6-.93,.89-.93,2.09,0,6.2,.97,6.12,1.53-.08,.6-.16,1.41-.16,2.22l-.08,4.03c1.25,.08,3.34,.04,5.36,.04h2.09v-7.05c0-.97-3.22-2.78-4.23-3.26-.24-.12,.64-1.09,.89-1.09,2.09,0,8.06,1.21,7.94,2.22Zm-16.23,9.95l-8.26,.04v5.28l8.3-.08-.04-5.24Zm15.55,11.56c-.08,.6-.12,1.41-.16,2.22l-.12,4.79c-.12,4.15-1.09,6.65-1.57,7.53-.36,.4-1.21,.64-1.69,.52-.32-.77-.64-1.65-.85-2.66l-11.64,.04c-.24,.72-.56,1.45-.81,2.09-.36,.4-1.17,.64-1.69,.52-.48-1.13-1.13-4.07-1.33-7.49l-.28-4.71c-.04-.77-1.61-1.89-2.58-2.42-.24-.12,.6-.97,.85-.97,2.13,0,6.36,.6,6.28,1.21-.08,.6-.16,1.37-.16,2.22v1.21l11.16-.08v-2.26c0-.72-1.57-1.89-2.58-2.38-.24-.12,.6-.93,.89-.93,2.09,0,6.36,.97,6.28,1.53Zm-4.55,6.32l-11.2,.04v3.83l11.2-.08v-3.79Z"/>
            <path class="cls-2" d="M306.58,67.15c-1.61,0-2.7,.36-3.18,.81-1.29-.36-2.94-2.22-3.1-2.7-.04-.16,.24-.64,.4-.6,.77,.2,3.54,.36,6.16,.28l10.07-.08c2.66-.04,3.5-1.33,3.91-1.33,.48,0,2.22,2.26,2.22,3.26,0,.2-.16,.36-.48,.36-.48,0-3.14-.04-5.24-.04l-10.76,.04Zm5.68,13.17c-4.67,0-7.73-2.17-7.73-5.44,0-2.94,2.7-4.95,6.85-5.2,.12-.16,.16-.32,.16-.48,0-.36-.12-.77-.64-1.13,0-.85,2.74,0,2.74,.44,0,.2-.24,.72-.36,1.17,4.11,.28,6.77,2.3,6.77,5.2,0,3.26-3.1,5.44-7.77,5.44Zm-2.82-17.24c-1.17,0-3.79-2.74-3.95-3.06-.08-.16,.2-.81,.48-.77,1.45,.24,2.9,.56,4.79,.77l4.15,.44c.4,.04,2.13,2.62,.97,2.62h-6.45Zm20.99,20.14c-.16,1.25-.16,2.78-.16,3.71,0,4.07-1.13,6.89-1.69,8.1-.36,.4-1.21,.6-1.69,.48-.36-1.13-1.01-2.9-1.01-8.58v-1.69h-11.4c-1.65,0-2.78,.48-3.3,.93-1.33-.36-3.79-2.38-3.91-2.9-.08-.16,.2-.64,.36-.6,.77,.2,3.58,.32,6.28,.32l9.63-.04c1.33,0,2.05-.2,2.54-.64,.56-.2,4.23,.48,4.35,.93Zm-18.17-4.87c2.22,0,3.63-1.37,3.63-3.42s-1.41-3.5-3.63-3.5-3.67,1.41-3.67,3.5,1.49,3.42,3.67,3.42Zm23.81-8.58c.56-.2,2.82,4.31,1.89,4.31l-7.65-.08c-.24,3.26-1.17,5.6-1.65,6.65-.36,.4-1.21,.6-1.69,.48-.36-1.13-1.01-2.9-1.01-8.58v-11.16c0-.97-3.26-2.78-4.23-3.26-.24-.12,.6-1.09,.85-1.09,2.13,0,8.06,1.21,7.94,2.22-.08,.6-.16,1.37-.16,2.22v10.51l5.72-2.22Z"/>
            <path class="cls-2" d="M375.47,88.42c0,.2-.16,.32-.48,.32l-29.08,.04c-1.65,0-2.78,.44-3.26,.93-1.33-.4-3.83-2.42-3.95-2.9-.04-.16,.2-.64,.4-.6,.77,.2,3.58,.32,6.28,.32h4.23l-.64-9.02c-.04-.77-1.57-1.89-2.58-2.42-.24-.12,.6-.89,.85-.89,2.13,0,6.12,.89,6.12,1.49l-.2,7.73c-.04,1.01-.08,2.05-.28,3.06h4.27l.48-10.39c.04-.72-1.57-1.89-2.58-2.38-.24-.12,.64-.93,.89-.93,2.09,0,6.16,.97,6.12,1.53l-.72,7.77c-.24,2.26-.56,3.54-.85,4.39l7.69-.04c2.86,0,3.79-1.61,4.23-1.61,.48,0,3.06,2.46,3.06,3.58Zm-32.27-25.05c-.04-.16,.24-.68,.4-.64,.77,.24,3.59,.36,6.28,.36l14.34-.08c1.33,0,2.01-.24,2.5-.68,.56-.2,4.11,.36,4.07,.97-.44,6.57-2.62,13.49-3.75,16.39-.48,1.13-3.22,1.61-3.06,.85,.64-2.98,1.37-8.94,1.69-15.23l-15.23,.04c-1.69,0-2.78,.44-3.3,.89-1.33-.36-3.83-2.38-3.95-2.86Z"/>
          </g>
          <g>
            <path class="cls-2" d="M161.79,118.53h-4.37c-.03-.18-.02-.31,.02-.49,.86-.16,1.2-.31,1.2-.53,0-.1-.06-.19-.18-.34l-3.22-3.97-1.39,1.38v2.72c0,.37,.19,.49,1.46,.65,.03,.24,.03,.34,0,.58h-4.11c-.03-.24-.03-.34,0-.58,1.26-.16,1.46-.28,1.46-.65v-8.22c0-.37-.19-.49-1.46-.65-.03-.24-.03-.34,0-.58h4.11c.03,.24,.03,.34,0,.58-1.26,.16-1.46,.28-1.46,.65v4.52l4.48-4.4c.13-.13,.16-.21,.16-.32,0-.24-.28-.39-1.26-.47-.03-.18-.03-.37,0-.55h3.85c.03,.18,.03,.37,0,.55-1.02,.16-1.25,.31-1.59,.65l-3.43,3.37,3.98,4.87c.23,.28,.45,.53,1.73,.76,.03,.18,.05,.31,.02,.49Z"/>
            <path class="cls-2" d="M165.44,110.76c2.12,0,3.53,1.59,3.53,3.97s-1.41,3.97-3.53,3.97-3.53-1.59-3.53-3.97,1.41-3.97,3.53-3.97Zm2.35,4.32c0-2.2-.97-3.67-2.44-3.67-1.34,0-2.23,1.13-2.23,2.82,0,2.3,1.02,3.82,2.56,3.82,1.28,0,2.12-1.18,2.12-2.96Z"/>
            <path class="cls-2" d="M175.21,112.38c-.29-.31-.52-.4-.86-.4-.91,0-1.47,1-1.91,1.68v3.87c0,.28,.08,.31,.97,.47,.08,.15,.1,.36,.08,.53h-3.17c-.02-.15,0-.39,.08-.53,.89-.16,.97-.19,.97-.47v-5.05c0-.34-.06-.42-.37-.52l-.79-.26c-.03-.08-.03-.26,0-.36l2.06-.6c.1-.03,.18,0,.18,.1v2.1c.4-.66,1.1-2.12,2.59-2.12,.16,0,.4,.03,.55,.1,.19,.42-.08,1.36-.37,1.46Z"/>
            <path class="cls-2" d="M182.85,114.29h-5.21c-.02,.11-.02,.24-.02,.36,0,2.02,1.15,3.24,2.48,3.24,.74,0,1.59-.36,2.25-1.34l.34,.26c-.57,1.15-1.57,1.89-2.93,1.89-1.76,0-3.22-1.34-3.22-3.77s1.55-4.16,3.58-4.16c1.73,0,2.74,1.44,2.74,3.07v.45Zm-5.1-.65h3.98c0-1.21-.58-2.12-1.73-2.12-1.02,0-1.94,.84-2.25,2.12Z"/>
            <path class="cls-2" d="M191.54,117.72c-.37,.68-.97,.97-1.47,.97-.73,0-1.13-.45-1.23-1.34-.55,.71-1.57,1.34-2.52,1.34-1.16,0-2.04-.66-2.04-1.76,0-1.46,1.28-2.51,4.55-3.11v-.76c0-1.07-.31-1.67-1.23-1.67-1.12,0-1.8,.65-2.33,1.42-.28-.08-.66-.68-.63-1.13,.52-.39,1.93-.92,2.99-.92,1.44,0,2.27,.5,2.27,2.09v4.37c0,.58,.18,.76,.55,.76,.29,0,.5-.18,.76-.55l.34,.29Zm-2.72-.87v-2.38c-2.27,.66-3.37,1.2-3.37,2.28,0,.66,.45,1.13,1.23,1.13,.6,0,1.51-.42,2.14-1.04Z"/>
            <path class="cls-2" d="M206.64,107.85c.03,.24,.03,.34,0,.58-1.26,.16-1.46,.28-1.46,.65v9.55h-.91l-6.1-9.97v8.64c0,.37,.19,.49,1.46,.65,.03,.24,.03,.34,0,.58h-3.79c-.03-.24-.03-.34,0-.58,1.26-.16,1.46-.28,1.46-.65v-8.22c0-.37-.19-.49-1.46-.65-.03-.24-.03-.34,0-.58h3.22l5.24,8.58v-7.35c0-.37-.19-.49-1.46-.65-.03-.24-.03-.34,0-.58h3.79Z"/>
            <path class="cls-2" d="M214.75,117.72c-.37,.68-.97,.97-1.47,.97-.73,0-1.13-.45-1.23-1.34-.55,.71-1.57,1.34-2.52,1.34-1.16,0-2.04-.66-2.04-1.76,0-1.46,1.28-2.51,4.55-3.11v-.76c0-1.07-.31-1.67-1.23-1.67-1.12,0-1.8,.65-2.33,1.42-.28-.08-.66-.68-.63-1.13,.52-.39,1.93-.92,2.99-.92,1.44,0,2.27,.5,2.27,2.09v4.37c0,.58,.18,.76,.55,.76,.29,0,.5-.18,.76-.55l.34,.29Zm-2.72-.87v-2.38c-2.27,.66-3.37,1.2-3.37,2.28,0,.66,.45,1.13,1.23,1.13,.6,0,1.5-.42,2.14-1.04Z"/>
            <path class="cls-2" d="M220.01,117.43c-.61,.84-1.36,1.26-2.12,1.26-.89,0-1.65-.44-1.65-1.83v-5.29h-1.13v-.65h1.13v-1.94l1.07-.4v2.35h2.15v.65h-2.15v5c0,.84,.26,1.33,.91,1.33,.45,0,1.02-.29,1.47-.79l.32,.32Z"/>
            <path class="cls-2" d="M224.14,118.53h-3.17c-.02-.15,0-.39,.08-.53,.89-.16,.97-.19,.97-.47v-5.05c0-.34-.06-.42-.37-.52l-.79-.26c-.03-.08-.03-.26,0-.36l2.06-.6c.1-.03,.18,0,.18,.1v6.68c0,.28,.08,.31,.97,.47,.08,.15,.1,.36,.08,.53Zm-1.73-11.07c.52,0,.92,.4,.92,.92s-.4,.92-.92,.92-.92-.4-.92-.92,.4-.92,.92-.92Z"/>
            <path class="cls-2" d="M228.9,110.76c2.12,0,3.53,1.59,3.53,3.97s-1.41,3.97-3.53,3.97-3.53-1.59-3.53-3.97,1.41-3.97,3.53-3.97Zm2.35,4.32c0-2.2-.97-3.67-2.44-3.67-1.34,0-2.23,1.13-2.23,2.82,0,2.3,1.02,3.82,2.56,3.82,1.28,0,2.12-1.18,2.12-2.96Z"/>
            <path class="cls-2" d="M241.86,118.53h-3.17c-.02-.15,0-.39,.08-.53,.89-.16,.97-.19,.97-.47v-4.09c0-1.13-.47-1.67-1.39-1.67-.86,0-1.91,.52-2.36,1v4.76c0,.28,.08,.31,.97,.47,.08,.15,.1,.36,.08,.53h-3.17c-.02-.15,0-.39,.08-.53,.89-.16,.97-.19,.97-.47v-5.05c0-.34-.06-.42-.37-.52l-.79-.26c-.03-.08-.03-.26,0-.36l2.06-.6c.1-.03,.18,0,.18,.1v1.34c.49-.63,1.7-1.42,2.8-1.42,1.57,0,2.02,1.26,2.02,2.7v4.06c0,.28,.08,.31,.97,.47,.08,.15,.1,.36,.08,.53Z"/>
            <path class="cls-2" d="M250.44,117.72c-.37,.68-.97,.97-1.47,.97-.73,0-1.13-.45-1.23-1.34-.55,.71-1.57,1.34-2.52,1.34-1.17,0-2.04-.66-2.04-1.76,0-1.46,1.28-2.51,4.55-3.11v-.76c0-1.07-.31-1.67-1.23-1.67-1.12,0-1.8,.65-2.33,1.42-.28-.08-.66-.68-.63-1.13,.52-.39,1.93-.92,2.99-.92,1.44,0,2.27,.5,2.27,2.09v4.37c0,.58,.18,.76,.55,.76,.29,0,.5-.18,.76-.55l.34,.29Zm-2.72-.87v-2.38c-2.27,.66-3.37,1.2-3.37,2.28,0,.66,.45,1.13,1.23,1.13,.6,0,1.51-.42,2.14-1.04Z"/>
            <path class="cls-2" d="M254.26,118.53h-3.17c-.02-.15,0-.39,.08-.53,.89-.16,.97-.19,.97-.47v-8.77c0-.34-.07-.42-.37-.52l-.79-.26c-.03-.08-.03-.26,0-.36l2.06-.6c.1-.03,.18,0,.18,.1v10.41c0,.28,.08,.31,.97,.47,.08,.15,.1,.36,.08,.53Z"/>
            <path class="cls-2" d="M262.7,108.37c-1.36,0-2.17,.91-2.17,1.84,0,2.98,5.91,2.1,5.91,5.5,0,1.83-1.47,2.98-3.58,2.98s-3.5-1.18-3.93-2.33c.1-.52,.81-1.28,1.28-1.28-.06,2.3,1.49,2.93,2.72,2.93,1.13,0,2.35-.73,2.35-2.06,0-2.85-5.81-1.93-5.81-5.52,0-1.68,1.31-2.75,3.24-2.75,1.44,0,2.77,.65,3.27,1.6-.02,.47-.49,1.23-.95,1.26-.18-1.21-1.05-2.18-2.31-2.18Z"/>
            <path class="cls-2" d="M269.07,114.65c0,2.02,1.15,3.24,2.48,3.24,.74,0,1.59-.36,2.25-1.34l.34,.26c-.57,1.15-1.57,1.89-2.93,1.89-1.76,0-3.22-1.34-3.22-3.77s1.39-4.16,3.61-4.16c1.26,0,2.36,.66,2.61,1.8-.15,.37-.71,.84-1.07,.84-.15-.91-.57-1.97-1.78-1.97s-2.28,1.41-2.28,3.22Z"/>
            <path class="cls-2" d="M283.32,118.53h-3.17c-.02-.15,0-.39,.08-.53,.89-.16,.97-.19,.97-.47v-4.09c0-1.13-.47-1.67-1.39-1.67-.86,0-1.91,.52-2.36,1v4.76c0,.28,.08,.31,.97,.47,.08,.15,.1,.36,.08,.53h-3.17c-.02-.15,0-.39,.08-.53,.89-.16,.97-.19,.97-.47v-8.77c0-.34-.06-.42-.37-.52l-.79-.26c-.03-.08-.03-.26,0-.36l2.06-.6c.1-.03,.18,0,.18,.1v5.07c.49-.63,1.7-1.42,2.8-1.42,1.57,0,2.02,1.26,2.02,2.7v4.06c0,.28,.08,.31,.97,.47,.08,.15,.1,.36,.08,.53Z"/>
            <path class="cls-2" d="M288.07,110.76c2.12,0,3.53,1.59,3.53,3.97s-1.41,3.97-3.53,3.97-3.53-1.59-3.53-3.97,1.41-3.97,3.53-3.97Zm2.35,4.32c0-2.2-.97-3.67-2.44-3.67-1.34,0-2.23,1.13-2.23,2.82,0,2.3,1.02,3.82,2.56,3.82,1.28,0,2.12-1.18,2.12-2.96Z"/>
            <path class="cls-2" d="M296.44,110.76c2.12,0,3.53,1.59,3.53,3.97s-1.41,3.97-3.53,3.97-3.53-1.59-3.53-3.97,1.41-3.97,3.53-3.97Zm2.35,4.32c0-2.2-.97-3.67-2.44-3.67-1.34,0-2.23,1.13-2.23,2.82,0,2.3,1.02,3.82,2.56,3.82,1.28,0,2.12-1.18,2.12-2.96Z"/>
            <path class="cls-2" d="M304.37,118.53h-3.17c-.02-.15,0-.39,.08-.53,.89-.16,.97-.19,.97-.47v-8.77c0-.34-.07-.42-.37-.52l-.79-.26c-.03-.08-.03-.26,0-.36l2.06-.6c.1-.03,.18,0,.18,.1v10.41c0,.28,.08,.31,.97,.47,.08,.15,.1,.36,.08,.53Z"/>
            <path class="cls-2" d="M312.64,110.76c2.12,0,3.53,1.59,3.53,3.97s-1.41,3.97-3.53,3.97-3.53-1.59-3.53-3.97,1.41-3.97,3.53-3.97Zm2.35,4.32c0-2.2-.97-3.67-2.44-3.67-1.34,0-2.23,1.13-2.23,2.82,0,2.3,1.02,3.82,2.56,3.82,1.28,0,2.12-1.18,2.12-2.96Z"/>
            <path class="cls-2" d="M323.04,107.65c-.03,.37-.6,1.12-.91,1.08-.18-.83-.65-1.15-1.33-1.15s-1.21,.65-1.21,2.04v1.29h2.01v.65h-2.01v5.92c0,.28,.4,.36,1.46,.5,.08,.15,.1,.36,.08,.53h-3.66c-.02-.15,0-.39,.08-.53,.89-.16,.97-.19,.97-.47v-5.96h-1.2v-.65h1.2v-.39c0-2.17,1.16-3.72,3.04-3.72,.76,0,1.33,.42,1.47,.84Z"/>
            <path class="cls-2" d="M336.32,107.69l.16,3.48c-.18,.03-.32,.03-.5,0-.57-2.35-.61-2.67-2.22-2.67h-1.7v8.8c0,.37,.19,.45,1.94,.65,.03,.21,.03,.34,0,.58h-5.08c-.03-.24-.03-.37,0-.58,1.75-.19,1.94-.28,1.94-.65v-8.8h-1.7c-1.6,0-1.65,.32-2.22,2.67-.18,.03-.32,.03-.5,0l.15-3.48,1.6,.16h6.54l1.59-.16Z"/>
            <path class="cls-2" d="M342.07,112.38c-.29-.31-.52-.4-.86-.4-.91,0-1.47,1-1.91,1.68v3.87c0,.28,.08,.31,.97,.47,.08,.15,.1,.36,.08,.53h-3.17c-.02-.15,0-.39,.08-.53,.89-.16,.97-.19,.97-.47v-5.05c0-.34-.07-.42-.37-.52l-.79-.26c-.03-.08-.03-.26,0-.36l2.06-.6c.1-.03,.18,0,.18,.1v2.1c.4-.66,1.1-2.12,2.59-2.12,.16,0,.4,.03,.55,.1,.19,.42-.08,1.36-.37,1.46Z"/>
            <path class="cls-2" d="M346.71,118.53h-3.17c-.02-.15,0-.39,.08-.53,.89-.16,.97-.19,.97-.47v-5.05c0-.34-.06-.42-.37-.52l-.79-.26c-.03-.08-.03-.26,0-.36l2.06-.6c.1-.03,.18,0,.18,.1v6.68c0,.28,.08,.31,.97,.47,.08,.15,.1,.36,.08,.53Zm-1.73-11.07c.52,0,.92,.4,.92,.92s-.4,.92-.92,.92-.92-.4-.92-.92,.4-.92,.92-.92Z"/>
            <path class="cls-2" d="M349.11,114.65c0,2.02,1.15,3.24,2.48,3.24,.74,0,1.59-.36,2.25-1.34l.34,.26c-.57,1.15-1.57,1.89-2.93,1.89-1.76,0-3.22-1.34-3.22-3.77s1.39-4.16,3.61-4.16c1.26,0,2.36,.66,2.61,1.8-.15,.37-.71,.84-1.07,.84-.15-.91-.57-1.97-1.78-1.97s-2.28,1.41-2.28,3.22Z"/>
            <path class="cls-2" d="M363.76,118.53h-3.41c-.03-.18,0-.36,.13-.53,.57-.16,.68-.21,.68-.4,0-.08-.05-.15-.15-.29l-1.91-2.57-1.46,1.44v1.36c0,.28,.08,.31,.97,.47,.08,.15,.1,.36,.08,.53h-3.17c-.02-.15,0-.39,.08-.53,.89-.16,.97-.19,.97-.47v-8.77c0-.34-.06-.42-.37-.52l-.79-.26c-.03-.08-.03-.26,0-.36l2.06-.6c.1-.03,.18,0,.18,.1v8.09l3.01-3.08c.06-.06,.16-.16,.16-.31,0-.19-.15-.28-1-.37-.08-.18-.11-.31-.08-.53h3.59c.03,.23,0,.36-.08,.53-.73,.1-1.04,.18-1.33,.47l-2.1,2.09,2.54,3.4c.24,.34,.57,.42,1.28,.58,.13,.18,.16,.36,.13,.53Z"/>
            <path class="cls-2" d="M365.88,112.74c0,1.88,4.24,1.02,4.24,3.71,0,1.33-1.33,2.25-2.85,2.25-1.3,0-2.43-.71-2.83-1.7,.08-.44,.65-.96,.78-.91,.36,1.42,1.26,1.99,2.18,1.99,.76,0,1.62-.6,1.62-1.42,0-2.04-4.14-1.05-4.14-3.67,0-1.2,1.13-2.22,2.62-2.22,1.08,0,2.02,.53,2.49,1.34,0,.31-.53,.86-.79,.86-.26-1.08-.87-1.59-1.83-1.59-.76,0-1.49,.61-1.49,1.36Z"/>
          </g>
        </g>
        <g>
          <rect class="cls-4" x="98.39" y="81.62" width="7.37" height="13.4"/>
          <rect class="cls-4" x="98.39" y="100.25" width="7.37" height="13.4"/>
          <rect class="cls-2" x="49.28" y="44.37" width="7.37" height="32.03"/>
          <rect class="cls-2" x="73.83" y="44.37" width="7.37" height="32.03"/>
          <rect class="cls-4" x="73.83" y="81.62" width="7.37" height="13.4"/>
          <rect class="cls-3" x="73.83" y="63" width="7.37" height="13.4"/>
          <rect class="cls-4" x="73.83" y="100.25" width="7.37" height="13.4"/>
          <rect class="cls-1" x="82.02" y="80.91" width="5.22" height="70.7" transform="translate(-31.63 200.89) rotate(-90)"/>
          <rect class="cls-1" x="75.73" y="68.58" width="5.22" height="58.12" transform="translate(-19.3 175.98) rotate(-90)"/>
          <rect class="cls-1" x="75.73" y="49.95" width="5.22" height="58.12" transform="translate(-.67 157.35) rotate(-90)"/>
          <rect class="cls-1" x="75.67" y="31.28" width="5.22" height="58.22" transform="translate(17.9 138.67) rotate(-90)"/>
          <rect class="cls-2" x="61.61" y="44.37" width="7.37" height="50.65"/>
          <rect class="cls-2" x="110.66" y="100.25" width="7.37" height="13.4"/>
          <rect class="cls-2" x="98.39" y="118.87" width="7.37" height="13.4"/>
          <rect class="cls-2" x="86.16" y="118.87" width="7.37" height="13.4"/>
          <rect class="cls-2" x="110.66" y="118.87" width="7.37" height="13.4"/>
          <rect class="cls-3" x="86.16" y="63" width="7.37" height="50.65"/>
          <rect class="cls-3" x="61.61" y="63.03" width="7.37" height="32"/>
          <rect class="cls-4" x="86.16" y="81.62" width="7.37" height="32.03"/>
        </g>
      </g>
      <rect class="cls-1" width="424.64" height="176.65"/>
    </g>
  </g>
</svg>