<?xml version="1.0" encoding="UTF-8"?>
<svg id="Layer_2" data-name="Layer 2" xmlns="http://www.w3.org/2000/svg" xmlns:xlink="http://www.w3.org/1999/xlink" viewBox="0 0 952.44 299.22">
  <defs>
    <style>
      .cls-1 {
        fill: none;
      }

      .cls-2 {
        clip-path: url(#clippath);
      }

      .cls-3 {
        fill: #ff9c9c;
      }

      .cls-4 {
        fill: #e06161;
      }

      .cls-5 {
        fill: #13604e;
      }

      .cls-6 {
        fill: #2e6c9a;
      }

      .cls-7 {
        fill: #4ae6ca;
      }

      .cls-8 {
        fill: #4e8dc3;
      }

      .cls-9 {
        fill: #4dd3b8;
      }
    </style>
    <clipPath id="clippath">
      <rect class="cls-1" x="26.58" y="26.58" width="899.28" height="246.07"/>
    </clipPath>
  </defs>
  <g id="path_kill" data-name="path kill">
    <g>
      <rect class="cls-7" x="3" y="3" width="946.44" height="293.22" rx="5.57" ry="5.57"/>
      <path class="cls-5" d="M943.86,3c3.08,0,5.57,2.49,5.57,5.57V290.65c0,3.08-2.49,5.57-5.57,5.57H8.57c-3.08,0-5.57-2.49-5.57-5.57V8.57c0-3.08,2.49-5.57,5.57-5.57H943.86m0-3H8.57C3.85,0,0,3.85,0,8.57V290.65c0,4.73,3.85,8.57,8.57,8.57H943.86c4.73,0,8.57-3.85,8.57-8.57V8.57c0-4.73-3.85-8.57-8.57-8.57h0Z"/>
    </g>
    <rect class="cls-5" x="26.58" y="26.58" width="899.28" height="246.07"/>
    <g class="cls-2">
      <g>
        <g>
          <path class="cls-4" d="M758.87,318.78c23.36,0,42.29-18.93,42.29-42.29h0c23.36,0,42.29-18.94,42.29-42.29,23.36,0,42.29-18.94,42.29-42.29h0c23.36,0,42.29-18.94,42.29-42.29s-18.93-42.29-42.29-42.29h0c0-23.36-18.94-42.29-42.29-42.29h0c0-23.36-18.94-42.29-42.29-42.29h0c0-23.36-18.94-42.29-42.29-42.29H193.56c-23.36,0-42.29,18.93-42.29,42.29h0c-23.36,0-42.29,18.94-42.29,42.29h0c-23.36,0-42.29,18.94-42.29,42.29h0c-23.36,0-42.29,18.94-42.29,42.29s18.93,42.29,42.29,42.29h0c0,23.36,18.94,42.29,42.29,42.29,0,23.36,18.94,42.29,42.29,42.29h0c0,23.36,18.94,42.29,42.29,42.29H758.87Z"/>
          <path class="cls-3" d="M758.87-18.56c22.77,0,41.29,18.52,41.29,41.29,0,.55,.45,1,1,1,22.77,0,41.29,18.52,41.29,41.29,0,.55,.45,1,1,1,22.77,0,41.29,18.52,41.29,41.29,0,.55,.45,1,1,1,22.77,0,41.29,18.53,41.29,41.29s-18.52,41.29-41.29,41.29c-.55,0-1,.45-1,1,0,22.77-18.52,41.29-41.29,41.29-.55,0-1,.45-1,1,0,22.77-18.52,41.29-41.29,41.29-.55,0-1,.45-1,1,0,22.77-18.53,41.29-41.29,41.29H193.56c-22.77,0-41.29-18.52-41.29-41.29,0-.55-.45-1-1-1-22.77,0-41.29-18.52-41.29-41.29,0-.55-.45-1-1-1-22.77,0-41.29-18.52-41.29-41.29,0-.55-.45-1-1-1-22.77,0-41.29-18.53-41.29-41.29s18.52-41.29,41.29-41.29c.55,0,1-.45,1-1,0-22.77,18.52-41.29,41.29-41.29,.55,0,1-.45,1-1,0-22.77,18.52-41.29,41.29-41.29,.55,0,1-.45,1-1,0-22.77,18.53-41.29,41.29-41.29H758.87m0-1H193.56c-23.36,0-42.29,18.93-42.29,42.29h0c-23.36,0-42.29,18.94-42.29,42.29-23.36,0-42.29,18.94-42.29,42.29h0c-23.36,0-42.29,18.94-42.29,42.29s18.93,42.29,42.29,42.29c0,23.36,18.94,42.29,42.29,42.29,0,23.36,18.94,42.29,42.29,42.29h0c0,23.36,18.94,42.29,42.29,42.29H758.87c23.36,0,42.29-18.93,42.29-42.29h0c23.36,0,42.29-18.94,42.29-42.29,23.36,0,42.29-18.94,42.29-42.29,23.36,0,42.29-18.94,42.29-42.29s-18.93-42.29-42.29-42.29h0c0-23.36-18.94-42.29-42.29-42.29,0-23.36-18.94-42.29-42.29-42.29,0-23.36-18.94-42.29-42.29-42.29h0Z"/>
        </g>
        <g>
          <path class="cls-6" d="M727.06-19.56c23.36,0,42.29,18.93,42.29,42.29,0,0,0,0,0,0h0c23.36,0,42.29,18.94,42.29,42.29h0s0,0,0,0c23.36,0,42.29,18.94,42.29,42.29h0c23.36,0,42.29,18.94,42.29,42.29,0,23.36-18.93,42.29-42.29,42.29h0c0,23.36-18.94,42.29-42.29,42.29,0,0,0,0,0,0,0,23.36-18.94,42.29-42.29,42.29h0c0,23.36-18.94,42.29-42.29,42.29H225.38c-23.36,0-42.29-18.93-42.29-42.29h0c-23.36,0-42.29-18.94-42.29-42.29,0,0,0,0,0,0-23.36,0-42.29-18.94-42.29-42.29h0c-23.36,0-42.29-18.94-42.29-42.29s18.93-42.29,42.29-42.29h0c0-23.36,18.94-42.29,42.29-42.29,0,0,0,0,0,0h0c0-23.36,18.94-42.29,42.29-42.29h0s0,0,0,0c0-23.36,18.94-42.29,42.29-42.29h501.68Z"/>
          <path class="cls-8" d="M727.06-18.56c22.77,0,41.29,18.52,41.29,41.29,0,.55,.45,1,1,1,22.77,0,41.29,18.52,41.29,41.29,0,.55,.45,1,1,1,22.77,0,41.29,18.52,41.29,41.29,0,.55,.45,1,1,1,22.77,0,41.29,18.53,41.29,41.29s-18.52,41.29-41.29,41.29c-.55,0-1,.45-1,1,0,22.77-18.52,41.29-41.29,41.29-.55,0-1,.45-1,1,0,22.77-18.52,41.29-41.29,41.29-.55,0-1,.45-1,1,0,22.77-18.53,41.29-41.29,41.29H225.38c-22.77,0-41.29-18.52-41.29-41.29,0-.55-.45-1-1-1-22.77,0-41.29-18.52-41.29-41.29,0-.55-.45-1-1-1-22.77,0-41.29-18.52-41.29-41.29,0-.55-.45-1-1-1-22.77,0-41.29-18.53-41.29-41.29s18.52-41.29,41.29-41.29c.55,0,1-.45,1-1,0-22.77,18.52-41.29,41.29-41.29,.55,0,1-.45,1-1,0-22.77,18.52-41.29,41.29-41.29,.55,0,1-.45,1-1,0-22.77,18.53-41.29,41.29-41.29h501.68m0-1H225.38c-23.36,0-42.29,18.93-42.29,42.29h0c-23.36,0-42.29,18.94-42.29,42.29h0c-23.36,0-42.29,18.94-42.29,42.29h0c-23.36,0-42.29,18.94-42.29,42.29s18.93,42.29,42.29,42.29c0,23.36,18.94,42.29,42.29,42.29,0,23.36,18.94,42.29,42.29,42.29,0,23.36,18.94,42.29,42.29,42.29h501.68c23.36,0,42.29-18.93,42.29-42.29h0c23.36,0,42.29-18.94,42.29-42.29,23.36,0,42.29-18.94,42.29-42.29,23.36,0,42.29-18.94,42.29-42.29s-18.93-42.29-42.29-42.29h0c0-23.36-18.94-42.29-42.29-42.29h0c0-23.36-18.94-42.29-42.29-42.29,0-23.36-18.94-42.29-42.29-42.29h0Z"/>
        </g>
        <g>
          <path class="cls-5" d="M694.67,318.78c23.36,0,42.29-18.93,42.29-42.29h0c23.36,0,42.29-18.94,42.29-42.29,23.36,0,42.29-18.94,42.29-42.29h0c23.36,0,42.29-18.94,42.29-42.29s-18.93-42.29-42.29-42.29h0c0-23.36-18.94-42.29-42.29-42.29h0c0-23.36-18.94-42.29-42.29-42.29h0c0-23.36-18.94-42.29-42.29-42.29H257.76c-23.36,0-42.29,18.93-42.29,42.29h0c-23.36,0-42.29,18.94-42.29,42.29h0c-23.36,0-42.29,18.94-42.29,42.29h0c-23.36,0-42.29,18.94-42.29,42.29s18.93,42.29,42.29,42.29h0c0,23.36,18.94,42.29,42.29,42.29,0,23.36,18.94,42.29,42.29,42.29h0c0,23.36,18.94,42.29,42.29,42.29h436.91Z"/>
          <path class="cls-7" d="M694.67-18.56c22.77,0,41.29,18.52,41.29,41.29,0,.55,.45,1,1,1,22.77,0,41.29,18.52,41.29,41.29,0,.55,.45,1,1,1,22.77,0,41.29,18.52,41.29,41.29,0,.55,.45,1,1,1,22.77,0,41.29,18.53,41.29,41.29s-18.52,41.29-41.29,41.29c-.55,0-1,.45-1,1,0,22.77-18.52,41.29-41.29,41.29-.55,0-1,.45-1,1,0,22.77-18.52,41.29-41.29,41.29-.55,0-1,.45-1,1,0,22.77-18.53,41.29-41.29,41.29H257.76c-22.77,0-41.29-18.52-41.29-41.29,0-.55-.45-1-1-1-22.77,0-41.29-18.52-41.29-41.29,0-.55-.45-1-1-1-22.77,0-41.29-18.52-41.29-41.29,0-.55-.45-1-1-1-22.77,0-41.29-18.53-41.29-41.29s18.52-41.29,41.29-41.29c.55,0,1-.45,1-1,0-22.77,18.52-41.29,41.29-41.29,.55,0,1-.45,1-1,0-22.77,18.52-41.29,41.29-41.29,.55,0,1-.45,1-1,0-22.77,18.53-41.29,41.29-41.29h436.91m0-1H257.76c-23.36,0-42.29,18.93-42.29,42.29h0c-23.36,0-42.29,18.94-42.29,42.29-23.36,0-42.29,18.94-42.29,42.29h0c-23.36,0-42.29,18.94-42.29,42.29s18.93,42.29,42.29,42.29h0c0,23.36,18.94,42.29,42.29,42.29,0,23.36,18.94,42.29,42.29,42.29h0c0,23.36,18.94,42.29,42.29,42.29h436.91c23.36,0,42.29-18.93,42.29-42.29h0c23.36,0,42.29-18.94,42.29-42.29,23.36,0,42.29-18.94,42.29-42.29h0c23.36,0,42.29-18.94,42.29-42.29s-18.93-42.29-42.29-42.29h0c0-23.36-18.94-42.29-42.29-42.29,0-23.36-18.94-42.29-42.29-42.29h0c0-23.36-18.94-42.29-42.29-42.29h0Z"/>
        </g>
        <path class="cls-7" d="M307.05,319.28c-.28,0-.5-.22-.5-.5s.22-.5,.5-.5c23.04,0,41.79-18.75,41.79-41.79,0-.28,.22-.5,.5-.5,23.05,0,41.79-18.75,41.79-41.79,0-.28,.22-.5,.5-.5,23.05,0,41.79-18.75,41.79-41.79,0-.28,.22-.5,.5-.5,23.04,0,41.79-18.75,41.79-41.79s-18.75-41.79-41.79-41.79c-.28,0-.5-.22-.5-.5,0-23.04-18.75-41.79-41.79-41.79-.28,0-.5-.22-.5-.5,0-23.05-18.75-41.79-41.79-41.79-.28,0-.5-.22-.5-.5,0-23.04-18.75-41.79-41.79-41.79-.28,0-.5-.22-.5-.5s.22-.5,.5-.5c23.43,0,42.52,18.93,42.79,42.29,23.2,.26,42.03,19.09,42.29,42.29,23.2,.27,42.03,19.09,42.29,42.29,23.37,.27,42.29,19.36,42.29,42.79s-18.93,42.52-42.29,42.79c-.27,23.2-19.09,42.03-42.29,42.29-.27,23.2-19.09,42.03-42.29,42.29-.27,23.37-19.36,42.29-42.79,42.29Z"/>
        <path class="cls-7" d="M645.39,319.28c-23.43,0-42.52-18.93-42.79-42.29-23.2-.26-42.03-19.09-42.29-42.29-23.2-.26-42.03-19.09-42.29-42.29-23.37-.27-42.29-19.36-42.29-42.79s18.93-42.52,42.29-42.79c.26-23.2,19.09-42.03,42.29-42.29,.26-23.2,19.09-42.03,42.29-42.29,.27-23.37,19.36-42.29,42.79-42.29,.28,0,.5,.22,.5,.5s-.22,.5-.5,.5c-23.04,0-41.79,18.75-41.79,41.79,0,.28-.22,.5-.5,.5-23.04,0-41.79,18.75-41.79,41.79,0,.28-.22,.5-.5,.5-23.04,0-41.79,18.75-41.79,41.79,0,.28-.22,.5-.5,.5-23.04,0-41.79,18.75-41.79,41.79s18.75,41.79,41.79,41.79c.28,0,.5,.22,.5,.5,0,23.04,18.75,41.79,41.79,41.79,.28,0,.5,.22,.5,.5,0,23.04,18.75,41.79,41.79,41.79,.28,0,.5,.22,.5,.5,0,23.04,18.75,41.79,41.79,41.79,.28,0,.5,.22,.5,.5s-.22,.5-.5,.5Z"/>
      </g>
      <g>
        <g>
          <g>
            <g>
              <circle class="cls-9" cx="60.64" cy="60.65" r="17.99"/>
              <path class="cls-5" d="M47.59,73.69c-7.19-7.19-7.19-18.9,0-26.09,7.19-7.19,18.9-7.19,26.09,0,7.19,7.19,7.19,18.9,0,26.09-7.19,7.19-18.9,7.19-26.09,0Zm25.44-25.44c-6.84-6.84-17.96-6.84-24.8,0-6.84,6.84-6.84,17.96,0,24.8,6.84,6.84,17.96,6.84,24.8,0s6.84-17.96,0-24.8Z"/>
            </g>
            <circle class="cls-5" cx="56.39" cy="56.4" r="11.99"/>
          </g>
          <g>
            <circle class="cls-9" cx="60.64" cy="35.2" r="17.99"/>
            <path class="cls-5" d="M47.59,48.25c-7.19-7.19-7.19-18.9,0-26.09s18.9-7.19,26.09,0c7.19,7.19,7.19,18.9,0,26.09s-18.9,7.19-26.09,0Zm25.44-25.44c-6.84-6.84-17.96-6.84-24.8,0-6.84,6.84-6.84,17.96,0,24.8,6.84,6.84,17.96,6.84,24.8,0,6.84-6.84,6.84-17.96,0-24.8Z"/>
          </g>
          <g>
            <circle class="cls-9" cx="35.2" cy="60.65" r="17.99"/>
            <path class="cls-5" d="M22.15,73.69c-7.19-7.19-7.19-18.9,0-26.09s18.9-7.19,26.09,0c7.19,7.19,7.19,18.9,0,26.09-7.19,7.19-18.9,7.19-26.09,0Zm25.44-25.44c-6.84-6.84-17.96-6.84-24.8,0-6.84,6.84-6.84,17.96,0,24.8,6.84,6.84,17.96,6.84,24.8,0,6.84-6.84,6.84-17.96,0-24.8Z"/>
          </g>
          <path class="cls-5" d="M22.48,47.92s7.55-8.14,16.95,0c9.49,8.22,4.84,17.08,3.89,18.5-1.16,1.72-2.71,3.09-6.05,3.84-1.33,.3-4.36,.84-8.27-2.04,0,0-5.75-4.79-1.59-11.08,0,0,3.2-4.04,7.31-1.3,0,0,1.19,.87,1.19,1.73,0,0-.1,1.59-1.55,1.24-.96-.23-2.16-1.63-4.21-.12-1.91,1.41-1.23,4.1-.64,5.24,1.6,3.08,3.69,4.21,6.34,4.17,0,0,4.36,.42,6.64-4.42,2.91-6.15,.17-11.53-3.81-15.01,0,0-8.14-7.73-18.17,1.56,0,0,1.29-1.66,1.97-2.32Z"/>
          <path class="cls-5" d="M47.92,22.49s7.55-8.14,16.95,0,4.84,17.08,3.89,18.5c-1.16,1.72-2.71,3.09-6.05,3.84-1.33,.3-4.36,.84-8.27-2.04,0,0-5.75-4.79-1.59-11.08,0,0,3.2-4.04,7.31-1.3,0,0,1.19,.87,1.19,1.73,0,0-.1,1.59-1.55,1.24-.96-.23-2.16-1.63-4.21-.12-1.91,1.41-1.23,4.1-.64,5.24,1.6,3.08,3.69,4.21,6.34,4.17,0,0,4.36,.42,6.64-4.42,2.91-6.15,.17-11.53-3.81-15.01,0,0-8.14-7.73-18.17,1.56,0,0,1.29-1.66,1.97-2.32Z"/>
          <g>
            <circle class="cls-9" cx="35.2" cy="35.2" r="17.99"/>
            <path class="cls-5" d="M22.15,48.25c-7.19-7.19-7.19-18.9,0-26.09s18.9-7.19,26.09,0,7.19,18.9,0,26.09c-7.19,7.19-18.9,7.19-26.09,0Zm25.44-25.44c-6.84-6.84-17.96-6.84-24.8,0s-6.84,17.96,0,24.8c6.84,6.84,17.96,6.84,24.8,0,6.84-6.84,6.84-17.96,0-24.8Z"/>
          </g>
          <circle class="cls-5" cx="30.95" cy="30.96" r="11.99"/>
        </g>
        <g>
          <g>
            <g>
              <circle class="cls-9" cx="891.8" cy="60.65" r="17.99"/>
              <path class="cls-5" d="M878.75,73.69c-7.19-7.19-7.19-18.9,0-26.09s18.9-7.19,26.09,0,7.19,18.9,0,26.09-18.9,7.19-26.09,0Zm.65-.65c6.84,6.84,17.96,6.84,24.8,0,6.84-6.84,6.84-17.96,0-24.8-6.84-6.84-17.96-6.84-24.8,0-6.84,6.84-6.84,17.96,0,24.8Z"/>
            </g>
            <circle class="cls-5" cx="896.04" cy="56.4" r="11.99"/>
          </g>
          <g>
            <circle class="cls-9" cx="891.8" cy="35.2" r="17.99"/>
            <path class="cls-5" d="M878.75,48.25c-7.19-7.19-7.19-18.9,0-26.09,7.19-7.19,18.9-7.19,26.09,0s7.19,18.9,0,26.09c-7.19,7.19-18.9,7.19-26.09,0Zm.65-.65c6.84,6.84,17.96,6.84,24.8,0,6.84-6.84,6.84-17.96,0-24.8s-17.96-6.84-24.8,0c-6.84,6.84-6.84,17.96,0,24.8Z"/>
          </g>
          <g>
            <circle class="cls-9" cx="917.24" cy="60.65" r="17.99"/>
            <path class="cls-5" d="M904.19,73.69c-7.19-7.19-7.19-18.9,0-26.09,7.19-7.19,18.9-7.19,26.09,0s7.19,18.9,0,26.09-18.9,7.19-26.09,0Zm.65-.65c6.84,6.84,17.96,6.84,24.8,0s6.84-17.96,0-24.8-17.96-6.84-24.8,0-6.84,17.96,0,24.8Z"/>
          </g>
          <path class="cls-5" d="M929.96,47.92s-7.55-8.14-16.95,0c-9.49,8.22-4.84,17.08-3.89,18.5,1.16,1.72,2.71,3.09,6.05,3.84,1.33,.3,4.36,.84,8.27-2.04,0,0,5.75-4.79,1.59-11.08,0,0-3.2-4.04-7.31-1.3,0,0-1.19,.87-1.19,1.73,0,0,.1,1.59,1.55,1.24,.96-.23,2.16-1.63,4.21-.12,1.91,1.41,1.23,4.1,.64,5.24-1.6,3.08-3.69,4.21-6.34,4.17,0,0-4.36,.42-6.64-4.42-2.91-6.15-.17-11.53,3.81-15.01,0,0,8.14-7.73,18.17,1.56,0,0-1.29-1.66-1.97-2.32Z"/>
          <path class="cls-5" d="M904.52,22.49s-7.55-8.14-16.95,0c-9.49,8.22-4.84,17.08-3.89,18.5,1.16,1.72,2.71,3.09,6.05,3.84,1.33,.3,4.36,.84,8.27-2.04,0,0,5.75-4.79,1.59-11.08,0,0-3.2-4.04-7.31-1.3,0,0-1.19,.87-1.19,1.73,0,0,.1,1.59,1.55,1.24,.96-.23,2.16-1.63,4.21-.12,1.91,1.41,1.23,4.1,.64,5.24-1.6,3.08-3.69,4.21-6.34,4.17,0,0-4.36,.42-6.64-4.42-2.91-6.15-.17-11.53,3.81-15.01,0,0,8.14-7.73,18.17,1.56,0,0-1.29-1.66-1.97-2.32Z"/>
          <g>
            <circle class="cls-9" cx="917.24" cy="35.2" r="17.99"/>
            <path class="cls-5" d="M904.19,48.25c-7.19-7.19-7.19-18.9,0-26.09s18.9-7.19,26.09,0c7.19,7.19,7.19,18.9,0,26.09s-18.9,7.19-26.09,0Zm.65-.65c6.84,6.84,17.96,6.84,24.8,0,6.84-6.84,6.84-17.96,0-24.8s-17.96-6.84-24.8,0c-6.84,6.84-6.84,17.96,0,24.8Z"/>
          </g>
          <circle class="cls-5" cx="921.49" cy="30.96" r="11.99"/>
        </g>
        <g>
          <g>
            <g>
              <circle class="cls-9" cx="60.64" cy="238.58" r="17.99"/>
              <path class="cls-5" d="M73.68,225.53c7.19,7.19,7.19,18.9,0,26.09-7.19,7.19-18.9,7.19-26.09,0-7.19-7.19-7.19-18.9,0-26.09,7.19-7.19,18.9-7.19,26.09,0Zm-.65,.65c-6.84-6.84-17.96-6.84-24.8,0-6.84,6.84-6.84,17.96,0,24.8s17.96,6.84,24.8,0c6.84-6.84,6.84-17.96,0-24.8Z"/>
            </g>
            <circle class="cls-5" cx="56.39" cy="242.82" r="11.99"/>
          </g>
          <g>
            <circle class="cls-9" cx="60.64" cy="264.02" r="17.99"/>
            <path class="cls-5" d="M73.69,250.97c7.19,7.19,7.19,18.9,0,26.09-7.19,7.19-18.9,7.19-26.09,0-7.19-7.19-7.19-18.9,0-26.09,7.19-7.19,18.9-7.19,26.09,0Zm-.65,.65c-6.84-6.84-17.96-6.84-24.8,0-6.84,6.84-6.84,17.96,0,24.8,6.84,6.84,17.96,6.84,24.8,0s6.84-17.96,0-24.8Z"/>
          </g>
          <g>
            <circle class="cls-9" cx="35.2" cy="238.58" r="17.99"/>
            <path class="cls-5" d="M48.24,225.53c7.19,7.19,7.19,18.9,0,26.09-7.19,7.19-18.9,7.19-26.09,0s-7.19-18.9,0-26.09c7.19-7.19,18.9-7.19,26.09,0Zm-.65,.65c-6.84-6.84-17.96-6.84-24.8,0-6.84,6.84-6.84,17.96,0,24.8,6.84,6.84,17.96,6.84,24.8,0,6.84-6.84,6.84-17.96,0-24.8Z"/>
          </g>
          <path class="cls-5" d="M22.48,251.31s7.55,8.14,16.95,0c9.49-8.22,4.84-17.08,3.89-18.5-1.16-1.72-2.71-3.09-6.05-3.84-1.33-.3-4.36-.84-8.27,2.04,0,0-5.75,4.79-1.59,11.08,0,0,3.2,4.04,7.31,1.3,0,0,1.19-.87,1.19-1.73,0,0-.1-1.59-1.55-1.24-.96,.23-2.16,1.63-4.21,.12-1.91-1.41-1.23-4.1-.64-5.24,1.6-3.08,3.69-4.21,6.34-4.17,0,0,4.36-.42,6.64,4.42,2.91,6.15,.17,11.53-3.81,15.01,0,0-8.14,7.73-18.17-1.56,0,0,1.29,1.66,1.97,2.32Z"/>
          <path class="cls-5" d="M47.92,276.74s7.55,8.14,16.95,0c9.49-8.22,4.84-17.08,3.89-18.5-1.16-1.72-2.71-3.09-6.05-3.84-1.33-.3-4.36-.84-8.27,2.04,0,0-5.75,4.79-1.59,11.08,0,0,3.2,4.04,7.31,1.3,0,0,1.19-.87,1.19-1.73,0,0-.1-1.59-1.55-1.24-.96,.23-2.16,1.63-4.21,.12-1.91-1.41-1.23-4.1-.64-5.24,1.6-3.08,3.69-4.21,6.34-4.17,0,0,4.36-.42,6.64,4.42,2.91,6.15,.17,11.53-3.81,15.01,0,0-8.14,7.73-18.17-1.56,0,0,1.29,1.66,1.97,2.32Z"/>
          <g>
            <circle class="cls-9" cx="35.2" cy="264.02" r="17.99"/>
            <path class="cls-5" d="M48.24,250.97c7.19,7.19,7.19,18.9,0,26.09-7.19,7.19-18.9,7.19-26.09,0-7.19-7.19-7.19-18.9,0-26.09s18.9-7.19,26.09,0Zm-.65,.65c-6.84-6.84-17.96-6.84-24.8,0s-6.84,17.96,0,24.8c6.84,6.84,17.96,6.84,24.8,0,6.84-6.84,6.84-17.96,0-24.8Z"/>
          </g>
          <circle class="cls-5" cx="30.95" cy="268.27" r="11.99"/>
        </g>
        <g>
          <g>
            <g>
              <circle class="cls-9" cx="891.8" cy="238.58" r="17.99"/>
              <path class="cls-5" d="M904.84,225.53c7.19,7.19,7.19,18.9,0,26.09-7.19,7.19-18.9,7.19-26.09,0-7.19-7.19-7.19-18.9,0-26.09,7.19-7.19,18.9-7.19,26.09,0Zm-25.44,25.44c6.84,6.84,17.96,6.84,24.8,0s6.84-17.96,0-24.8-17.96-6.84-24.8,0-6.84,17.96,0,24.8Z"/>
            </g>
            <circle class="cls-5" cx="896.04" cy="242.82" r="11.99"/>
          </g>
          <g>
            <circle class="cls-9" cx="891.8" cy="264.02" r="17.99"/>
            <path class="cls-5" d="M904.84,250.97c7.19,7.19,7.19,18.9,0,26.09s-18.9,7.19-26.09,0c-7.19-7.19-7.19-18.9,0-26.09,7.19-7.19,18.9-7.19,26.09,0Zm-25.44,25.44c6.84,6.84,17.96,6.84,24.8,0s6.84-17.96,0-24.8-17.96-6.84-24.8,0-6.84,17.96,0,24.8Z"/>
          </g>
          <g>
            <circle class="cls-9" cx="917.24" cy="238.58" r="17.99"/>
            <path class="cls-5" d="M930.29,225.53c7.19,7.19,7.19,18.9,0,26.09-7.19,7.19-18.9,7.19-26.09,0s-7.19-18.9,0-26.09c7.19-7.19,18.9-7.19,26.09,0Zm-25.44,25.44c6.84,6.84,17.96,6.84,24.8,0s6.84-17.96,0-24.8c-6.84-6.84-17.96-6.84-24.8,0s-6.84,17.96,0,24.8Z"/>
          </g>
          <path class="cls-5" d="M929.96,251.31s-7.55,8.14-16.95,0c-9.49-8.22-4.84-17.08-3.89-18.5,1.16-1.72,2.71-3.09,6.05-3.84,1.33-.3,4.36-.84,8.27,2.04,0,0,5.75,4.79,1.59,11.08,0,0-3.2,4.04-7.31,1.3,0,0-1.19-.87-1.19-1.73,0,0,.1-1.59,1.55-1.24,.96,.23,2.16,1.63,4.21,.12,1.91-1.41,1.23-4.1,.64-5.24-1.6-3.08-3.69-4.21-6.34-4.17,0,0-4.36-.42-6.64,4.42-2.91,6.15-.17,11.53,3.81,15.01,0,0,8.14,7.73,18.17-1.56,0,0-1.29,1.66-1.97,2.32Z"/>
          <path class="cls-5" d="M904.52,276.74s-7.55,8.14-16.95,0c-9.49-8.22-4.84-17.08-3.89-18.5,1.16-1.72,2.71-3.09,6.05-3.84,1.33-.3,4.36-.84,8.27,2.04,0,0,5.75,4.79,1.59,11.08,0,0-3.2,4.04-7.31,1.3,0,0-1.19-.87-1.19-1.73,0,0,.1-1.59,1.55-1.24,.96,.23,2.16,1.63,4.21,.12,1.91-1.41,1.23-4.1,.64-5.24-1.6-3.08-3.69-4.21-6.34-4.17,0,0-4.36-.42-6.64,4.42-2.91,6.15-.17,11.53,3.81,15.01,0,0,8.14,7.73,18.17-1.56,0,0-1.29,1.66-1.97,2.32Z"/>
          <g>
            <circle class="cls-9" cx="917.24" cy="264.02" r="17.99"/>
            <path class="cls-5" d="M930.29,250.97c7.19,7.19,7.19,18.9,0,26.09-7.19,7.19-18.9,7.19-26.09,0s-7.19-18.9,0-26.09c7.19-7.19,18.9-7.19,26.09,0Zm-25.44,25.44c6.84,6.84,17.96,6.84,24.8,0,6.84-6.84,6.84-17.96,0-24.8s-17.96-6.84-24.8,0c-6.84,6.84-6.84,17.96,0,24.8Z"/>
          </g>
          <circle class="cls-5" cx="921.49" cy="268.27" r="11.99"/>
        </g>
      </g>
      <g>
        <g>
          <g>
            <circle class="cls-9" cx="476.02" cy="237.13" r="17.99"/>
            <path class="cls-5" d="M494.47,237.13c0,10.17-8.28,18.45-18.45,18.45s-18.45-8.28-18.45-18.45,8.28-18.45,18.45-18.45,18.45,8.28,18.45,18.45Zm-35.98,0c0,9.67,7.87,17.53,17.53,17.53s17.53-7.87,17.53-17.53c0-9.67-7.87-17.53-17.53-17.53-9.67,0-17.53,7.87-17.53,17.53Z"/>
          </g>
          <circle class="cls-5" cx="476.02" cy="243.13" r="11.99"/>
        </g>
        <g>
          <circle class="cls-9" cx="458.02" cy="255.12" r="17.99"/>
          <path class="cls-5" d="M476.47,255.12c0,10.17-8.28,18.45-18.45,18.45-10.17,0-18.45-8.28-18.45-18.45,0-10.17,8.28-18.45,18.45-18.45s18.45,8.28,18.45,18.45Zm-35.98,0c0,9.67,7.87,17.53,17.53,17.53s17.53-7.87,17.53-17.53c0-9.67-7.87-17.53-17.53-17.53s-17.53,7.87-17.53,17.53Z"/>
        </g>
        <g>
          <circle class="cls-9" cx="494.01" cy="255.12" r="17.99"/>
          <path class="cls-5" d="M512.46,255.12c0,10.17-8.28,18.45-18.45,18.45-10.17,0-18.45-8.28-18.45-18.45,0-10.17,8.28-18.45,18.45-18.45s18.45,8.28,18.45,18.45Zm-35.98,0c0,9.67,7.87,17.53,17.53,17.53s17.53-7.87,17.53-17.53-7.87-17.53-17.53-17.53-17.53,7.87-17.53,17.53Z"/>
        </g>
        <path class="cls-5" d="M494,273.11s-11.09,.42-11.99-11.99c-.9-12.52,8.65-15.5,10.34-15.83,2.03-.4,4.1-.26,7,1.56,1.16,.73,3.68,2.49,4.4,7.29,0,0,.68,7.45-6.71,8.96,0,0-5.12,.59-6.09-4.25,0,0-.23-1.45,.38-2.07,0,0,1.19-1.05,1.97,.22,.52,.85,.38,2.68,2.9,3.06,2.35,.35,3.77-2.03,4.16-3.25,1.04-3.31,.37-5.59-1.53-7.44,0,0-2.78-3.38-7.82-1.57-6.41,2.3-8.28,8.03-7.92,13.31,0,0,.3,11.22,13.95,11.74,0,0-2.08,.26-3.03,.25Z"/>
        <path class="cls-5" d="M458.03,273.11s-11.09,.42-11.99-11.99c-.9-12.52,8.65-15.5,10.34-15.83,2.03-.4,4.1-.26,7,1.56,1.16,.73,3.68,2.49,4.4,7.29,0,0,.68,7.45-6.71,8.96,0,0-5.12,.59-6.09-4.25,0,0-.23-1.45,.38-2.07,0,0,1.19-1.05,1.97,.22,.52,.85,.38,2.68,2.9,3.06,2.35,.35,3.77-2.03,4.16-3.25,1.04-3.31,.37-5.59-1.53-7.44,0,0-2.78-3.38-7.82-1.57-6.41,2.3-8.28,8.03-7.92,13.31,0,0,.3,11.22,13.95,11.74,0,0-2.08,.26-3.03,.25Z"/>
        <g>
          <circle class="cls-9" cx="476.02" cy="273.11" r="17.99"/>
          <path class="cls-5" d="M494.47,273.11c0,10.17-8.28,18.45-18.45,18.45-10.17,0-18.45-8.28-18.45-18.45s8.28-18.45,18.45-18.45,18.45,8.28,18.45,18.45Zm-35.98,0c0,9.67,7.87,17.53,17.53,17.53s17.53-7.87,17.53-17.53c0-9.67-7.87-17.53-17.53-17.53s-17.53,7.87-17.53,17.53Z"/>
        </g>
        <circle class="cls-5" cx="476.02" cy="279.11" r="11.99"/>
      </g>
      <g>
        <g>
          <g>
            <circle class="cls-9" cx="476.02" cy="64.8" r="17.99"/>
            <path class="cls-5" d="M476.02,83.25c-10.17,0-18.45-8.28-18.45-18.45s8.28-18.45,18.45-18.45,18.45,8.28,18.45,18.45-8.28,18.45-18.45,18.45Zm0-.92c9.67,0,17.53-7.87,17.53-17.53,0-9.67-7.87-17.53-17.53-17.53s-17.53,7.87-17.53,17.53c0,9.67,7.87,17.53,17.53,17.53Z"/>
          </g>
          <circle class="cls-5" cx="476.02" cy="58.79" r="11.99"/>
        </g>
        <g>
          <circle class="cls-9" cx="458.02" cy="46.81" r="17.99"/>
          <path class="cls-5" d="M458.02,65.26c-10.17,0-18.45-8.28-18.45-18.45,0-10.17,8.28-18.45,18.45-18.45,10.17,0,18.45,8.28,18.45,18.45,0,10.17-8.28,18.45-18.45,18.45Zm0-.92c9.67,0,17.53-7.87,17.53-17.53,0-9.67-7.87-17.53-17.53-17.53s-17.53,7.87-17.53,17.53c0,9.67,7.87,17.53,17.53,17.53Z"/>
        </g>
        <g>
          <circle class="cls-9" cx="494.01" cy="46.81" r="17.99"/>
          <path class="cls-5" d="M494.01,65.26c-10.17,0-18.45-8.28-18.45-18.45,0-10.17,8.28-18.45,18.45-18.45,10.17,0,18.45,8.28,18.45,18.45s-8.28,18.45-18.45,18.45Zm0-.92c9.67,0,17.53-7.87,17.53-17.53s-7.87-17.53-17.53-17.53-17.53,7.87-17.53,17.53,7.87,17.53,17.53,17.53Z"/>
        </g>
        <path class="cls-5" d="M494,28.81s-11.09-.42-11.99,11.99c-.9,12.52,8.65,15.5,10.34,15.83,2.03,.4,4.1,.26,7-1.56,1.16-.73,3.68-2.49,4.4-7.29,0,0,.68-7.45-6.71-8.96,0,0-5.12-.59-6.09,4.25,0,0-.23,1.45,.38,2.07,0,0,1.19,1.05,1.97-.22,.52-.85,.38-2.68,2.9-3.06,2.35-.35,3.77,2.03,4.16,3.25,1.04,3.31,.37,5.59-1.53,7.44,0,0-2.78,3.38-7.82,1.57-6.41-2.3-8.28-8.03-7.92-13.31,0,0,.3-11.22,13.95-11.74,0,0-2.08-.26-3.03-.25Z"/>
        <path class="cls-5" d="M458.03,28.82s-11.09-.42-11.99,11.99c-.9,12.52,8.65,15.5,10.34,15.83,2.03,.4,4.1,.26,7-1.56,1.16-.73,3.68-2.49,4.4-7.29,0,0,.68-7.45-6.71-8.96,0,0-5.12-.59-6.09,4.25,0,0-.23,1.45,.38,2.07,0,0,1.19,1.05,1.97-.22,.52-.85,.38-2.68,2.9-3.06,2.35-.35,3.77,2.03,4.16,3.25,1.04,3.31,.37,5.59-1.53,7.44,0,0-2.78,3.38-7.82,1.57-6.41-2.3-8.28-8.03-7.92-13.31,0,0,.3-11.22,13.95-11.74,0,0-2.08-.26-3.03-.25Z"/>
        <g>
          <circle class="cls-9" cx="476.02" cy="28.82" r="17.99"/>
          <path class="cls-5" d="M476.02,47.27c-10.17,0-18.45-8.28-18.45-18.45s8.28-18.45,18.45-18.45c10.17,0,18.45,8.28,18.45,18.45,0,10.17-8.28,18.45-18.45,18.45Zm0-.92c9.67,0,17.53-7.87,17.53-17.53,0-9.67-7.87-17.53-17.53-17.53s-17.53,7.87-17.53,17.53c0,9.67,7.87,17.53,17.53,17.53Z"/>
        </g>
        <circle class="cls-5" cx="476.02" cy="22.81" r="11.99"/>
      </g>
    </g>
    <path class="cls-5" d="M924.99,26.58c.48,0,.87,.39,.87,.87v244.32c0,.48-.39,.87-.87,.87H27.45c-.48,0-.87-.39-.87-.87V27.45c0-.48,.39-.87,.87-.87H924.99m0-3H27.45c-2.13,0-3.87,1.74-3.87,3.87v244.32c0,2.13,1.74,3.87,3.87,3.87H924.99c2.13,0,3.87-1.74,3.87-3.87V27.45c0-2.13-1.74-3.87-3.87-3.87h0Z"/>
  </g>
  

</svg>