<?xml version="1.0" encoding="UTF-8"?>
<svg id="Layer_2" data-name="Layer 2" xmlns="http://www.w3.org/2000/svg" viewBox="0 0 233.09 56.9">
  <defs>
    <style>
      .cls-1 {
        fill: #fff;
      }
    </style>
  </defs>
  <g id="Layer_4_copy" data-name="Layer 4 copy">
    <g>
      <path class="cls-1" d="M9.77,29.88c-.3,.71-.71,1.49-1.01,2.32-.54,.59-1.73,.95-2.5,.71-.71-1.61-1.79-5.18-1.96-10.24l-.42-10.06c-.06-1.13-2.38-2.8-3.81-3.51-.36-.18,.89-1.49,1.25-1.49,3.16,0,9.41,1.43,9.29,2.26-.12,.89-.24,2.08-.24,3.27v2.2l11.61-.12-.06-5.12c0-1.07-2.32-2.8-3.75-3.51-.42-.18,.89-1.37,1.25-1.37,3.15,0,9.58,1.43,9.46,2.26-.12,.89-.24,2.08-.24,3.27l-.18,10.48c-.12,6.73-1.73,9.64-2.5,10.95-.54,.59-1.73,.95-2.5,.71-.42-1.01-.83-1.96-1.13-3.09l-12.56,.06Zm12.2-11.25l-11.61,.06v7.86l11.67-.12-.06-7.8Zm21.31,27.74c0,5.95-5.36,9.88-13.51,9.88s-13.51-3.93-13.51-9.88,4.76-9.52,12.2-9.88c.06-.24,.12-.42,.12-.65,0-.6-.18-1.25-1.07-1.85,0-1.43,4.58,0,4.58,.71,0,.3-.36,1.13-.6,1.79,7.2,.54,11.79,4.35,11.79,9.88Zm-6.73-.18c0-3.87-2.8-6.49-6.9-6.49s-6.67,2.62-6.67,6.49,2.62,6.55,6.55,6.55c4.17,0,7.02-2.62,7.02-6.55Zm15.3-28.69c.83-.3,4.17,6.43,2.8,6.43l-11.01-.18c-.18,5.48-1.73,9.29-2.5,11.01-.54,.59-1.79,.89-2.5,.71-.54-1.67-1.49-4.29-1.49-12.68V6.43c0-1.43-4.76-4.11-6.25-4.82-.36-.18,.89-1.61,1.31-1.61,3.09,0,11.84,1.79,11.67,3.27-.12,.89-.24,2.02-.24,3.27v14.23l8.21-3.27Z"/>
      <path class="cls-1" d="M110.54,32.44c0,.3-.24,.48-.77,.48l-21.85,.06v3.75c0,3.99-1.49,7.44-2.56,8.99-.54,.6-1.67,.89-2.5,.71-.6-1.91-1.43-4.29-1.43-8.81v-4.64l-14.58,.06c-2.44,0-4.11,.66-4.82,1.31-1.96-.54-5.65-3.51-5.83-4.23-.06-.3,.3-1.01,.54-.95,1.19,.3,5.36,.48,9.35,.48l33.69-.12c4.23,0,5.59-2.32,6.25-2.32,.71,0,4.52,3.63,4.52,5.24Zm-6.61,21.19c0,.3-.3,.48-.77,.48l-27.8,.12c-5.83,0-7.02-1.96-7.02-5.83v-5.24c0-1.01-2.26-2.62-3.45-2.98-.36-.12,1.01-1.79,1.55-1.79,2.38,0,5.89,.59,7.74,1.25,.36,.12,.89,.3,.77,1.07-.12,.83-.12,2.14-.12,3.21v4.52c0,2.08,.77,2.32,2.62,2.32l15.66-.06c4.23,0,5.65-2.32,6.25-2.32,.77,0,4.58,3.63,4.58,5.24ZM68.63,8.63c-.06-.71-2.02-2.14-3.15-2.56-.06-.36,.89-1.55,1.37-1.55,1.19,0,5.48,.18,8.09,.65h15.24c1.96,0,2.98-.3,3.75-.95,.77-.3,6.13,.54,6.01,1.37l-2.26,13.33c.95,.89,2.26,2.62,2.26,3.51,0,.3-.3,.48-.77,.48-.65,0-3.21-.06-7.02-.06h-16.85c-.42,.95-.95,1.85-1.67,2.56-.59,.6-1.73,.89-2.56,.71-.65-1.61-1.19-5.95-1.79-11.61l-.66-5.89Zm23.69-.06h-16.49v10.89h16.13l.36-10.89Z"/>
      <path class="cls-1" d="M143.21,31.25c-8.33,0-13.87-4.46-13.87-11.13,0-6.25,4.94-10.59,12.56-11.01,.06-.24,.12-.42,.12-.65,0-.6-.18-1.25-1.07-1.85,0-1.43,4.58,0,4.58,.71,0,.3-.36,1.13-.59,1.79,7.32,.6,12.08,4.88,12.08,11.01,0,6.67-5.54,11.13-13.81,11.13Zm-.24-3.51c4.46,0,7.5-3.09,7.5-7.8s-2.98-7.62-7.38-7.62-7.14,3.1-7.14,7.62,2.8,7.8,7.02,7.8Zm33.1,25.89c0,.3-.24,.48-.71,.48l-26.49,.12c-5.83,0-6.96-1.96-6.96-5.83v-6.25c0-1.07-2.32-2.62-3.45-2.98-.36-.18,.95-1.79,1.55-1.79,2.38,0,5.89,.59,7.68,1.19,.42,.12,.95,.3,.83,1.13s-.12,2.08-.12,3.21v5.54c0,2.08,.71,2.32,2.56,2.32l14.35-.06c4.23,0,5.65-2.32,6.25-2.32,.77,0,4.52,3.63,4.52,5.24Zm3.39-33.45c.77-.3,4.17,6.37,2.74,6.37l-10.65-.12v3.81c0,6.01-1.67,10.83-2.5,12.68-.54,.6-1.79,.89-2.5,.71-.54-1.73-1.49-5.06-1.49-13.39V6.43c0-1.43-4.76-4.11-6.25-4.82-.36-.18,.89-1.61,1.31-1.61,3.09,0,11.85,1.79,11.67,3.27-.12,.89-.24,2.02-.24,3.27V23.39l7.92-3.21Z"/>
      <path class="cls-1" d="M233.09,3.27c-.12,.89-.24,2.02-.24,3.27v30.6c0,9.76-1.67,16.85-2.5,18.99-.6,.59-1.79,.89-2.56,.71-.48-1.67-1.43-6.96-1.43-15.77v-13.16l-6.31,.06v6.85c0,9.76-1.67,15.06-2.56,17.2-.54,.6-1.61,.89-2.32,.71-.48-1.73-1.49-5.18-1.49-13.99v-4.52c-6.37,2.5-14.94,5.24-19.94,5.42-1.55,.06-3.81-1.91-3.81-5.42l-.06-17.86c0-1.01-2.92-2.62-4.05-2.98-.36-.12,.95-1.79,1.49-1.79,2.44,0,6.55,.66,8.39,1.25,.36,.12,.89,.3,.77,1.07-.12,.89-.12,2.14-.12,3.21v16.79c4.23-.12,11.37-1.25,17.32-2.56V8.81c0-1.13-3.21-3.39-4.7-4.11-.36-.18,.95-1.31,1.31-1.31,3.1,0,10.12,1.73,10,2.62-.12,.89-.24,2.02-.24,3.27v15.06l6.31-.06V6.43c0-1.43-4.82-4.11-6.25-4.82-.42-.18,.89-1.61,1.25-1.61,3.15,0,11.9,1.79,11.73,3.27Z"/>
    </g>
  </g>
</svg>